PathFileType	4	(X/Y/Z)	C:/Users/opensim2020/Desktop/walking_exp_matlab/subject02_walking14_straight_02.trc																																																																																																																									
DataRate	CameraRate	NumFrames	NumMarkers	Units	OrigDataRate	OrigDataStartFrame	OrigNumFrames																																																																																																																					
100	100	7	41	mm	100	810	121																																																																																																																					
Frame#	Time	LFHD			RFHD			LBHD			RBHD			C7			T10			CLAV			STRN			RBAK			LSHO			LUPA			LELB			LFRM			LWRA			LWRB			LFIN			RSHO			RUPA			RELB			RFRM			RWRA			RWRB			RFIN			LASI			RASI			LPSI			RPSI			LTHI			LKNE			LTIB			LANK			LHEE			LTOE			RTHI			RKNE			RTIB			RANK			RHEE			RTOE			*39			*40		
		X1	Y1	Z1	X2	Y2	Z2	X3	Y3	Z3	X4	Y4	Z4	X5	Y5	Z5	X6	Y6	Z6	X7	Y7	Z7	X8	Y8	Z8	X9	Y9	Z9	X10	Y10	Z10	X11	Y11	Z11	X12	Y12	Z12	X13	Y13	Z13	X14	Y14	Z14	X15	Y15	Z15	X16	Y16	Z16	X17	Y17	Z17	X18	Y18	Z18	X19	Y19	Z19	X20	Y20	Z20	X21	Y21	Z21	X22	Y22	Z22	X23	Y23	Z23	X24	Y24	Z24	X25	Y25	Z25	X26	Y26	Z26	X27	Y27	Z27	X28	Y28	Z28	X29	Y29	Z29	X30	Y30	Z30	X31	Y31	Z31	X32	Y32	Z32	X33	Y33	Z33	X34	Y34	Z34	X35	Y35	Z35	X36	Y36	Z36	X37	Y37	Z37	X38	Y38	Z38	X39	Y39	Z39	X40	Y40	Z40	X41	Y41	Z41
																																																																																																																												
1	0	-659.9425	1705.93591	953.9762	-669.37885	1697.48853	1098.20642	-793.77753	1638.74097	942.38062	-815.68817	1628.76611	1084.04199	-860.64325	1503.63599	1007.19714	-925.53912	1232.58618	1015.2879	-721.86621	1430.92407	1018.29492	-680.52393	1258.37329	1045.25085	-933.74646	1336.67627	1071.37354	-764.9928	1466.28918	839.49207	-823.23193	1278.61072	753.56769	-871.31079	1153.97192	734.2168	-924.35742	1044.43738	695.93494	-941.61694	903.72461	688.04266	-978.98096	939.48517	665.43457	-1000.05115	882.34692	641.94147	-815.4646	1480.12402	1195.44873	-808.92963	1320.43213	1321.10828	-737.19434	1202.65515	1386.88672	-644.15271	1124.7843	1411.06348	-534.90485	1048.77161	1395.65527	-566.1452	1023.22302	1435.14929	-497.98007	1003.7865	1440.39294	-685.55487	964.48132	931.50061	-748.31488	950.92102	1183.271	-906.70099	1011.16412	958.02643	-937.06262	1014.34729	1066.10266	-666.86432	664.86768	860.21106	-613.34436	477.06223	906.83038	-586.84808	285.71564	908.04761	-491.00876	82.62445	950.03912	-518.48145	41.53686	999.32959	-339.34219	111.75979	966.38226	-928.51251	677.77313	1227.6814	-996.43933	477.62634	1192.05371	-1108.43542	325.8425	1194.38501	-1192.73401	148.03239	1164.29346	-1233.91357	107.52404	1105.36499	-1072.40991	41.74516	1200.74695	-762.37299	1782.90552	1033.22705	-2845.59399	1034.22217	3360.42896
2	0.01	-645.73157	1705.43762	954.82709	-655.18781	1696.41882	1098.93762	-779.35071	1637.60254	942.9035	-801.51093	1627.61426	1084.42688	-846.39752	1502.69421	1007.0553	-909.8457	1230.9231	1015.02435	-707.10608	1430.39404	1018.13245	-665.18585	1258.01245	1045.31689	-918.6673	1335.03369	1071.02686	-749.97833	1465.83044	839.42511	-810.0271	1278.98145	753.44769	-859.77429	1154.83264	735.13281	-915.19403	1046.43286	696.30664	-934.60065	906.00867	688.19604	-971.21667	942.70074	666.17242	-994.56061	886.32141	642.95831	-801.2146	1479.34094	1195.28906	-794.73047	1319.59326	1320.74768	-722.59546	1202.43555	1387.10669	-628.41632	1125.93018	1411.37378	-517.8139	1051.96082	1396.04004	-548.79254	1025.52502	1435.14734	-480.36539	1007.66382	1440.71436	-667.74207	964.93121	932.57056	-731.61914	950.64606	1184.26379	-889.2251	1010.07404	957.22919	-919.89996	1012.57721	1064.88794	-646.42651	665.33685	861.84631	-596.3642	476.12289	907.81995	-574.33966	283.8446	908.40094	-485.07718	78.14438	950.65546	-512.5072	36.78958	999.5528	-333.06055	103.9408	966.65601	-912.94177	678.33038	1228.59058	-982.01233	478.61499	1194.88892	-1098.19678	329.83331	1196.43115	-1187.71265	154.76659	1166.25842	-1229.0011	116.23046	1106.66809	-1071.92456	41.57188	1201.58838	-748.35425	1781.95886	1033.92773	-2846.06104	1034.39136	3357.66187
3	0.02	-631.35474	1704.52881	955.57471	-641.21246	1695.45288	1099.54407	-765.2854	1637.08813	943.14154	-787.49225	1626.59094	1084.80798	-831.94092	1501.71716	1006.65955	-893.96136	1229.14526	1014.56805	-692.13251	1429.78467	1017.86725	-649.55078	1257.79468	1045.03003	-903.53326	1333.23877	1070.6687	-734.9375	1465.48645	839.35236	-796.92889	1279.54602	753.21539	-847.98383	1156.03662	735.30524	-904.52887	1048.31494	697.263	-926.17255	907.39166	689.26489	-962.20209	945.28326	667.31091	-987.29871	889.54382	644.40808	-786.89764	1478.51489	1194.80933	-780.76874	1318.85693	1320.21851	-708.4541	1202.05029	1387.02869	-613.23901	1126.80566	1411.40283	-501.41116	1054.77966	1396.20276	-532.12897	1027.48242	1434.84338	-463.39499	1010.81726	1440.83337	-649.98474	965.26318	933.31909	-714.32697	950.55963	1184.87305	-871.47925	1008.96051	956.47949	-902.49146	1011.20081	1063.86133	-625.56311	665.34192	863.87616	-579.19397	475.01346	908.65833	-562.91766	281.7103	908.63416	-481.43594	73.20584	951.03064	-511.1012	33.48346	999.62402	-329.17346	94.76591	966.72772	-896.69147	678.7876	1229.53528	-966.67029	479.48044	1198.08728	-1087.03552	333.93958	1198.81287	-1181.71692	161.65294	1168.15796	-1222.6886	125.2234	1107.69019	-1071.48938	41.74892	1202.65015	-734.27869	1780.95984	1034.69763	-2845.29663	1034.31799	3360.44653
4	0.03	-617.21686	1704.08289	956.09412	-627.23199	1694.18896	1100.0835	-751.02344	1636.33496	943.28284	-773.45422	1625.32202	1084.86792	-817.45416	1500.64673	1006.19958	-877.89331	1227.08887	1013.75323	-677.28522	1429.50061	1017.30719	-633.43048	1257.70508	1044.4447	-888.37976	1331.31604	1070.29053	-720.06116	1465.47119	838.99377	-783.49506	1280.2522	752.70685	-835.97278	1157.11804	735.50909	-893.4613	1049.73608	697.96991	-916.61456	908.8429	690.27496	-952.15649	947.21356	668.5799	-979.11963	891.86414	646.62274	-772.71234	1477.604	1194.00183	-766.90991	1318.13171	1319.46533	-694.69952	1201.63428	1386.83862	-598.56561	1127.47742	1411.48535	-485.66562	1057.07471	1396.07947	-516.13214	1029.02124	1434.38135	-447.17151	1013.47681	1440.56567	-631.73767	965.7583	933.31012	-696.12793	950.51227	1184.7428	-853.53931	1007.76282	955.66821	-883.71887	1009.55823	1062.7876	-605.09094	665.52716	865.46515	-562.33405	473.53964	908.80725	-552.60596	279.22043	909.49274	-478.61224	68.91539	953.51215	-508.63031	33.98962	1002.4024	-324.12277	82.08375	965.74884	-879.81561	679.07788	1230.43445	-950.4577	480.15604	1201.64465	-1074.90161	337.63535	1200.61877	-1174.75684	168.74159	1170.06921	-1215.26978	134.61162	1108.7821	-1070.88733	41.9198	1203.70325	-720.18732	1780.02625	1035.43652	-2846.10181	1034.39038	3357.53101
5	0.04	-602.62146	1703.44019	956.74365	-613.06012	1693.26917	1100.60327	-736.32666	1635.552	943.47748	-759.19012	1624.13879	1084.77319	-802.75909	1499.53723	1005.34503	-861.85669	1225.23999	1012.50934	-662.07349	1429.13342	1016.59656	-617.11182	1257.9563	1043.61536	-872.90912	1329.64587	1069.15295	-705.19452	1465.56726	838.61896	-770.25513	1281.37219	752.16107	-823.40161	1157.87024	736.00812	-881.54962	1050.91223	698.63684	-905.88464	909.87677	691.67548	-941.13226	948.52637	670.05597	-969.17847	893.30432	648.93829	-758.56335	1476.75964	1192.99426	-753.24847	1317.31921	1318.55591	-681.17853	1201.00916	1386.38696	-584.24695	1127.67847	1410.92664	-470.47406	1058.83679	1395.7688	-500.68845	1030.05017	1433.78796	-431.57458	1015.59686	1440.0509	-613.84406	966.13409	932.8609	-677.44659	950.42676	1184.02966	-835.552	1006.83643	954.84271	-865.6015	1008.383	1062.02222	-584.96136	665.92126	866.95343	-547.08496	472.35431	908.33478	-542.5943	277.44232	913.33063	-471.83514	70.34801	953.04999	-502.87515	37.90364	1002.79736	-314.42941	69.1023	962.60968	-862.39526	679.13123	1231.26917	-933.04321	480.41058	1205.22021	-1061.82324	341.38666	1202.97803	-1166.44727	175.994	1172.22144	-1206.4906	144.31146	1109.93005	-1070.11011	41.73262	1203.79919	-706.10168	1779.07251	1036.1051	-2845.47168	1034.33118	3360.4436
6	0.05	-588.18408	1703.96069	957.11047	-598.73071	1693.15271	1101.20508	-721.67657	1635.86597	943.37708	-744.784	1623.8197	1084.72668	-789.27765	1499.01831	1004.5069	-845.73297	1224.66467	1011.31183	-646.98328	1429.33362	1015.71161	-601.13635	1258.65112	1042.45276	-857.60303	1328.51819	1067.59656	-690.5354	1465.91113	837.97363	-756.67517	1282.17371	751.19794	-810.62579	1158.80359	735.59631	-869.69562	1051.57483	699.27673	-893.95978	910.28906	693.42542	-929.1142	949.16083	671.5365	-958.01428	893.5896	651.63434	-744.51221	1476.34741	1192.35681	-739.79144	1316.3551	1317.59912	-667.90509	1200.13477	1385.92065	-570.3233	1127.57385	1410.43787	-455.77237	1059.98633	1395.26831	-485.78351	1030.58545	1432.97729	-416.37454	1016.74963	1439.29346	-596.97229	966.16199	932.02325	-658.63806	950.17065	1182.45532	-817.68414	1007.01105	954.14862	-847.95654	1007.49347	1061.59106	-566.61865	668.17749	867.65375	-531.96173	473.18796	907.19409	-530.89417	278.53116	916.81976	-461.68439	69.92401	949.42877	-497.11496	40.59093	999.17389	-304.59763	60.40433	963.96118	-844.37097	678.75525	1232.151	-914.08588	480.20987	1209.13831	-1047.19214	344.95441	1205.599	-1156.08203	183.17459	1174.5791	-1195.96082	154.57605	1111.70459	-1068.81445	41.70031	1203.79834	-691.80072	1779.03833	1036.81189	-2845.33496	1034.28125	3360.47461
7	0.06	-573.65167	1704.85962	957.62561	-584.68317	1693.62207	1101.61707	-706.9458	1636.7605	943.30371	-730.42859	1624.1001	1084.43054	-774.65277	1498.776	1003.30121	-829.69653	1224.10889	1010.46942	-632.21942	1430.23267	1014.94916	-585.31281	1260.02771	1041.11206	-842.40625	1327.25012	1066.05896	-676.14679	1466.55151	837.30945	-742.82074	1283.16882	750.27838	-797.23236	1159.52954	735.4549	-856.51563	1052.02771	699.95776	-880.73956	910.56171	695.20862	-916.03577	949.1886	672.96606	-945.76556	893.22272	654.7627	-730.54858	1476.14575	1192.0658	-726.45117	1315.25964	1316.62683	-654.91644	1199.09058	1385.3866	-556.79822	1127.0376	1409.71509	-441.6615	1060.56482	1394.65552	-471.47662	1030.59216	1432.02832	-402.00586	1017.55286	1438.43982	-579.84399	966.25433	930.53802	-639.79919	949.58844	1180.18994	-800.34698	1007.88593	953.53339	-830.83545	1007.20197	1061.73267	-549.4447	670.17712	866.63824	-515.12628	475.11716	905.9281	-516.82721	281.47455	912.09698	-454.64896	68.23529	947.07831	-493.80374	42.5106	995.45209	-298.49152	49.04731	967.7453	-825.33539	677.74841	1232.54382	-893.22528	479.26611	1213.42273	-1030.38623	348.09494	1208.69153	-1143.41724	190.06592	1176.56116	-1183.15625	164.96214	1112.96326	-1067.25464	42.02191	1203.40417	-677.54626	1779.43884	1037.16772	-2846.00317	1034.43713	3357.50952
